HIERARCHY
ROOT Hips
{
	OFFSET 0.00 0.00 0.00
	CHANNELS 6 Xposition Yposition Zposition Xrotation Yrotation Zrotation
	JOINT Spine
	{
		OFFSET 0.00000 1.92919 2.89379
		CHANNELS 3 Xrotation Yrotation Zrotation
		JOINT Spine1
		{
			OFFSET 0.00000 0.67000 3.79977
			CHANNELS 3 Xrotation Yrotation Zrotation
			JOINT Spine2
			{
				OFFSET 0.00000 0.33628 3.84370
				CHANNELS 3 Xrotation Yrotation Zrotation
				JOINT Spine3
				{
					OFFSET 0.00000 0.00000 3.85838
					CHANNELS 3 Xrotation Yrotation Zrotation
					JOINT Neck
					{
						OFFSET 0.00000 -1.44688 10.12826
						CHANNELS 3 Xrotation Yrotation Zrotation
						JOINT Head
						{
							OFFSET 0.00000 -0.92125 5.22468
							CHANNELS 3 Xrotation Yrotation Zrotation
							End Site
							{
								OFFSET 0.00000 0.00001 6.24576
							}
						}
					}
					JOINT RightShoulder
					{
						OFFSET -1.19724 -1.99539 6.46510
						CHANNELS 3 Xrotation Yrotation Zrotation
						JOINT RightArm
						{
							OFFSET -5.94629 0.00000 0.00000
							CHANNELS 3 Xrotation Yrotation Zrotation
							JOINT RightForeArm
							{
								OFFSET -11.02134 0.00000 0.00000
								CHANNELS 3 Xrotation Yrotation Zrotation
								JOINT RightHand
								{
									OFFSET -10.43440 0.00000 0.00000
									CHANNELS 3 Xrotation Yrotation Zrotation
									JOINT RightHandEnd
									{
										OFFSET -2.82937 0.00000 0.00000
										CHANNELS 3 Xrotation Yrotation Zrotation
										End Site
										{
											OFFSET -2.82937 0.00000 0.00000
										}
									}
									JOINT RightHandThumb1
									{
										OFFSET -1.13175 -1.88625 -0.75450
										CHANNELS 3 Yrotation Xrotation Zrotation
										End Site
										{
											OFFSET -2.73296 -0.73229 0.00000
										}
									}
								}
							}
						}
					}
					JOINT LeftShoulder
					{
						OFFSET 1.19724 -1.99539 6.46510
						CHANNELS 3 Xrotation Yrotation Zrotation
						JOINT LeftArm
						{
							OFFSET 5.94629 0.00000 0.00000
							CHANNELS 3 Xrotation Yrotation Zrotation
							JOINT LeftForeArm
							{
								OFFSET 11.02134 0.00000 0.00000
								CHANNELS 3 Xrotation Yrotation Zrotation
								JOINT LeftHand
								{
									OFFSET 10.43440 0.00000 0.00000
									CHANNELS 3 Xrotation Yrotation Zrotation
									JOINT LeftHandEnd
									{
										OFFSET 2.82937 0.00000 0.00000
										CHANNELS 3 Xrotation Yrotation Zrotation
										End Site
										{
											OFFSET 2.82937 0.00000 0.00000
										}
									}
									JOINT LeftHandThumb1
									{
										OFFSET 1.13175 -1.88625 -0.75450
										CHANNELS 3 Yrotation Xrotation Zrotation
										End Site
										{
											OFFSET 2.73296 -0.73229 0.00000
										}
									}
								}
							}
						}
					}
				}
			}
		}
	}
	JOINT RightUpLeg
	{
		OFFSET -3.55181 0.00000 -1.03761
		CHANNELS 3 Xrotation Yrotation Zrotation
		JOINT RightLeg
		{
			OFFSET 0.00001 0.00000 -15.86106
			CHANNELS 3 Xrotation Yrotation Zrotation
			JOINT RightFoot
			{
				OFFSET 0.00001 0.00000 -16.30493
				CHANNELS 3 Xrotation Yrotation Zrotation
				JOINT RightToeBase
				{
					OFFSET 0.00000 -5.76215 -2.09725
					CHANNELS 3 Xrotation Yrotation Zrotation
					End Site
					{
						OFFSET 0.00000 -2.87338 -0.00000
					}
				}
			}
		}
	}
	JOINT LeftUpLeg
	{
		OFFSET 3.55181 0.00000 -1.03761
		CHANNELS 3 Xrotation Yrotation Zrotation
		JOINT LeftLeg
		{
			OFFSET 0.00001 0.00000 -15.86106
			CHANNELS 3 Xrotation Yrotation Zrotation
			JOINT LeftFoot
			{
				OFFSET 0.00001 0.00000 -16.30493
				CHANNELS 3 Xrotation Yrotation Zrotation
				JOINT LeftToeBase
				{
					OFFSET 0.00000 -5.76215 -2.09725
					CHANNELS 3 Xrotation Yrotation Zrotation
					End Site
					{
						OFFSET 0.00000 -2.87338 -0.00000
					}
				}
			}
		}
	}
}
MOTION
Frames: 7
Frame Time: 0.008342
 -30.4189 -23.1915 35.0761 3.7465 -1.5732 87.7528 3.9895 -3.3174 0.0593 0.8063 -1.6695 -0.3735 8.2260 4.8177 -1.4791 2.8494 3.2160 -4.8395 1.1205 7.2341 3.6784 0.9739 -1.4231 -1.3095 11.1475 7.2627 15.0897 -0.1639 -41.6371 10.8528 -0.0000 0.0001 92.6026 -41.1697 34.9164 22.4034 -0.0000 0.0000 -0.0000 -0.0000 -0.0000 -0.0000 11.7047 9.2928 -6.1566 33.3382 41.3236 -53.2695 -0.0001 -0.0001 -100.0107 -22.6042 -54.7788 -18.0859 0.0000 0.0000 0.0000 -0.0000 0.0000 0.0000 -14.7035 5.4300 -17.8843 29.4481 0.0000 0.0000 -13.3268 5.4164 -16.2790 0.9544 0.0000 0.0000 -13.1006 4.9752 25.4107 27.2086 0.0000 0.0000 -9.0106 -3.0528 4.0218 -6.4217 0.0000 -0.0000
 -30.4565 -23.1647 35.1001 3.3833 -1.6142 87.8007 4.0875 -3.6377 0.0757 0.8641 -1.7732 -0.3978 8.1946 4.7336 -1.5741 2.8155 3.1984 -4.8559 1.0068 7.4053 3.9705 0.9933 -1.2731 -0.8877 11.0890 7.5085 15.0868 -0.8866 -40.6474 9.9911 -0.0000 0.0001 91.8374 -41.2887 34.5196 22.0606 0.0000 0.0000 0.0000 -0.0000 0.0000 -0.0000 11.7982 9.5737 -6.2062 34.4413 41.5041 -54.7179 -0.0001 -0.0001 -98.4844 -24.0212 -55.3075 -19.2921 0.0000 -0.0000 0.0000 0.0000 0.0000 0.0000 -14.3752 5.2077 -18.6266 28.9058 0.0000 0.0000 -13.0245 5.1199 -15.6466 0.8389 0.0000 0.0000 -13.4400 4.3840 25.7400 27.9527 0.0000 0.0000 -8.8926 -2.8050 3.7782 -6.6905 0.0000 -0.0000
 -30.4960 -23.1466 35.1232 3.0239 -1.6616 87.8123 4.2017 -3.9096 0.0911 0.9350 -1.8541 -0.4225 8.1399 4.6275 -1.6443 2.7782 3.1549 -4.8384 0.9088 7.5124 4.2552 0.9974 -1.0924 -0.4327 11.0509 7.7202 15.0672 -1.5641 -39.6828 9.2318 -0.0000 0.0001 90.9958 -41.4133 34.1160 21.7579 -0.0000 0.0000 -0.0000 0.0000 -0.0000 0.0000 11.9151 9.7611 -6.2341 35.4956 41.7088 -56.1600 -0.0001 -0.0001 -96.9303 -25.4696 -55.7765 -20.5087 0.0000 0.0000 -0.0000 0.0000 0.0000 0.0000 -14.0642 4.9608 -19.3460 28.3850 0.0000 0.0000 -12.6817 4.8722 -15.0098 0.7304 0.0000 0.0000 -13.8296 3.7118 26.2007 28.8301 0.0000 0.0000 -8.7264 -2.5292 3.4235 -6.9883 0.0000 -0.0000
 -30.5373 -23.1365 35.1447 2.6897 -1.7086 87.7951 4.3299 -4.1239 0.0993 1.0030 -1.8933 -0.4250 8.0746 4.4911 -1.7061 2.7376 3.0916 -4.7947 0.8310 7.5440 4.5283 0.9875 -0.8840 0.0537 11.0258 7.8883 15.0409 -2.1958 -38.7488 8.5627 -0.0000 0.0001 90.0869 -41.5225 33.7020 21.4886 -0.0000 -0.0000 -0.0000 -0.0000 -0.0000 -0.0000 12.0045 9.8400 -6.2586 36.5410 41.9704 -57.5564 -0.0001 -0.0001 -95.3895 -26.8960 -56.1685 -21.6891 0.0000 -0.0000 -0.0000 0.0000 0.0000 0.0000 -13.7720 4.7099 -20.0341 27.8744 0.0000 0.0000 -12.3267 4.7022 -14.3863 0.6623 0.0000 0.0000 -14.2778 2.9760 26.7800 29.8443 0.0000 0.0000 -8.4883 -2.1778 2.9611 -7.2987 0.0000 -0.0000
 -30.5800 -23.1355 35.1640 2.3725 -1.7532 87.7682 4.4589 -4.2783 0.1048 1.0812 -1.9208 -0.4388 7.9910 4.3534 -1.7488 2.6967 3.0073 -4.7203 0.7757 7.4931 4.7777 0.9664 -0.6545 0.5693 11.0232 8.0024 14.9925 -2.7844 -37.8488 7.9984 -0.0000 0.0001 89.1142 -41.6022 33.2770 21.2552 0.0000 -0.0000 0.0000 -0.0000 0.0000 0.0000 12.1320 9.8117 -6.2656 37.5031 42.2292 -58.9204 -0.0001 -0.0001 -93.8671 -28.2868 -56.5126 -22.8045 0.0000 0.0000 -0.0000 0.0000 0.0000 0.0000 -13.4822 4.4394 -20.6916 27.3432 0.0000 0.0000 -11.9760 4.6227 -13.8033 0.6534 0.0000 0.0000 -14.7917 2.1595 27.4482 31.0121 0.0000 0.0000 -8.1651 -1.6964 2.3918 -7.6028 0.0000 -0.0000
 -30.6264 -23.1423 35.1797 2.0842 -1.7579 87.7378 4.5588 -4.3758 0.1088 1.1525 -1.9198 -0.4471 7.9007 4.2066 -1.7830 2.6575 2.9034 -4.6271 0.7417 7.3625 5.0053 0.9370 -0.4114 1.1039 11.0299 8.0614 14.9291 -3.3286 -36.9950 7.5244 -0.0000 0.0001 88.0901 -41.6288 32.8396 21.0521 0.0000 -0.0000 0.0000 -0.0000 0.0000 0.0000 12.2443 9.6782 -6.2782 38.4117 42.5056 -60.1978 -0.0001 -0.0001 -92.4051 -29.6198 -56.7925 -23.8419 0.0000 0.0000 -0.0000 0.0000 0.0000 0.0000 -13.2436 4.1626 -21.3051 26.8039 0.0000 0.0000 -11.6527 4.6334 -13.2764 0.7091 0.0000 0.0000 -15.4178 1.2729 28.1691 32.3377 0.0000 0.0000 -7.7363 -1.0301 1.7469 -7.8806 0.0000 -0.0000
 -30.6728 -23.1571 35.1927 1.8158 -1.7707 87.7168 4.6681 -4.4326 0.1088 1.2203 -1.8755 -0.4456 7.8048 4.0364 -1.8187 2.6210 2.7878 -4.5172 0.7331 7.1533 5.2054 0.9029 -0.1585 1.6558 11.0453 8.0659 14.8540 -3.8301 -36.1962 7.1311 -0.0000 0.0001 87.0254 -41.6056 32.3855 20.8997 0.0000 -0.0000 0.0000 0.0000 -0.0000 0.0000 12.3578 9.4443 -6.3031 39.2373 42.7797 -61.3648 -0.0001 -0.0001 -91.0280 -30.8659 -57.0261 -24.7667 0.0000 -0.0000 -0.0000 -0.0000 0.0000 -0.0000 -12.9861 3.8718 -21.8851 26.2341 0.0000 0.0000 -11.3675 4.7196 -12.8054 0.8218 0.0000 0.0000 -16.0907 0.3105 28.9132 33.8024 0.0000 0.0000 -7.1909 -0.1267 1.0372 -8.1135 0.0000 -0.0000
